<svg xmlns="http://www.w3.org/2000/svg" xmlns:xlink="http://www.w3.org/1999/xlink" xmlns:lucid="lucid" width="806.32" height="800"><g transform="translate(-160 0)" lucid:page-tab-id="0_0"><path d="M283.16 400h240v60h-240z" fill="none"/><use xlink:href="#a" transform="matrix(1,0,0,1,283.1578947368421,400) translate(0 17.77777777777778)"/><use xlink:href="#b" transform="matrix(1,0,0,1,283.1578947368421,400) translate(123.27160493827162 17.77777777777778)"/><use xlink:href="#c" transform="matrix(1,0,0,1,283.1578947368421,400) translate(141.79012345679013 17.77777777777778)"/><use xlink:href="#d" transform="matrix(1,0,0,1,283.1578947368421,400) translate(0 44.44444444444444)"/><use xlink:href="#e" transform="matrix(1,0,0,1,283.1578947368421,400) translate(103.58024691358024 44.44444444444444)"/><path d="M380 300c0 44.18-35.82 80-80 80s-80-35.82-80-80 35.82-80 80-80 80 35.82 80 80z" stroke="#5e5e5e" stroke-width="3" fill="#fff"/><use xlink:href="#f" transform="matrix(1,0,0,1,225,225) translate(63.27160493827161 78.71527777777777)"/><path d="M643.16 100c0 44.18-35.82 80-80 80s-80-35.82-80-80 35.82-80 80-80 80 35.82 80 80z" stroke="#5e5e5e" stroke-width="3" fill="#fff"/><use xlink:href="#g" transform="matrix(1,0,0,1,488.1578947368421,25) translate(63.27160493827161 78.71527777777777)"/><path d="M920 300c0 44.18-35.82 80-80 80s-80-35.82-80-80 35.82-80 80-80 80 35.82 80 80z" stroke="#5e5e5e" stroke-width="3" fill="#fff"/><use xlink:href="#h" transform="matrix(1,0,0,1,765,225) translate(63.27160493827161 78.71527777777777)"/><path d="M803.16 600c0 44.18-35.82 80-80 80s-80-35.82-80-80 35.82-80 80-80 80 35.82 80 80z" stroke="#5e5e5e" stroke-width="3" fill="#fff"/><use xlink:href="#i" transform="matrix(1,0,0,1,648.1578947368421,525) translate(63.27160493827161 78.71527777777777)"/><path d="M480 600c0 44.18-35.82 80-80 80s-80-35.82-80-80 35.82-80 80-80 80 35.82 80 80z" stroke="#5e5e5e" stroke-width="3" fill="#fff"/><use xlink:href="#j" transform="matrix(1,0,0,1,325,525) translate(63.27160493827161 78.71527777777777)"/><path d="M320 80h80v80h-80z" stroke="#5e5e5e" stroke-width="3" fill="#fff"/><use xlink:href="#k" transform="matrix(1,0,0,1,325,85) translate(22.685185185185187 39.65277777777778)"/><path d="M523.16 700h80v80h-80z" stroke="#5e5e5e" stroke-width="3" fill="#fff"/><use xlink:href="#l" transform="matrix(1,0,0,1,528.1578947368421,705) translate(22.685185185185187 39.65277777777778)"/><path d="M180 460h80v80h-80z" stroke="#5e5e5e" stroke-width="3" fill="#fff"/><use xlink:href="#m" transform="matrix(1,0,0,1,185,465) translate(22.685185185185187 39.65277777777778)"/><path d="M866.32 460h80v80h-80z" stroke="#5e5e5e" stroke-width="3" fill="#fff"/><use xlink:href="#n" transform="matrix(1,0,0,1,871.3157894736842,465) translate(22.685185185185187 39.65277777777778)"/><path d="M729.47 80h73.7v80h-73.7z" stroke="#5e5e5e" stroke-width="3" fill="#fff"/><use xlink:href="#o" transform="matrix(1,0,0,1,734.4736842105262,85.00000000000003) translate(19.685185185185187 39.65277777777778)"/><path d="M402.5 115.82l61.17-6.03" stroke="#5e5e5e" stroke-width="2" fill="none"/><path d="M402.62 116.8l-1.12.12v-2l.92-.1z" fill="#5e5e5e"/><path d="M478.86 108.3l-13.74 6-.9-9.22z" stroke="#5e5e5e" stroke-width="2" fill="#5e5e5e"/><path d="M783.68 162.43l18.43 45" stroke="#5e5e5e" stroke-width="2" fill="none"/><path d="M784.62 162.07l-1.85.76-.55-1.33h2.16z" fill="#5e5e5e"/><path d="M807.9 221.57l-9.7-11.44 8.58-3.52z" stroke="#5e5e5e" stroke-width="2" fill="#5e5e5e"/><path d="M863.94 523.14l-53 28.94" stroke="#5e5e5e" stroke-width="2" fill="none"/><path d="M864.82 523.8l-.43.23-.96-1.76 1.38-.75z" fill="#5e5e5e"/><path d="M797.53 559.4l10.3-10.9 4.44 8.13z" stroke="#5e5e5e" stroke-width="2" fill="#5e5e5e"/><path d="M520.9 703.74l-45.03-38.64" stroke="#5e5e5e" stroke-width="2" fill="none"/><path d="M521.66 703.07v2.64l-1.43-1.22 1.3-1.52z" fill="#5e5e5e"/><path d="M464.28 655.16l13.85 5.77-6.04 7.03z" stroke="#5e5e5e" stroke-width="2" fill="#5e5e5e"/><path d="M236.97 457.57l25.9-64.7" stroke="#5e5e5e" stroke-width="2" fill="none"/><path d="M237.9 457.92l-.22.58h-2.16l.53-1.32z" fill="#5e5e5e"/><path d="M268.53 378.68l-1 14.97-8.6-3.44z" stroke="#5e5e5e" stroke-width="2" fill="#5e5e5e"/><path d="M645.23 108.08l64.33 6.33" stroke="#5e5e5e" stroke-width="2" fill="none"/><path d="M645.35 107.1l-.2 1.98-1-.1.18-2z" fill="#5e5e5e"/><path d="M724.75 115.9l-14.65 3.22.9-9.22z" stroke="#5e5e5e" stroke-width="2" fill="#5e5e5e"/><path d="M865.97 378.33l20.76 62.6" stroke="#5e5e5e" stroke-width="2" fill="none"/><path d="M866.93 378.04l-1.9.63-.33-1 1.02-.3.88-.33z" fill="#5e5e5e"/><path d="M891.54 455.43l-8.9-12.08 8.8-2.92z" stroke="#5e5e5e" stroke-width="2" fill="#5e5e5e"/><path d="M661.1 654.3l-42.52 37.2" stroke="#5e5e5e" stroke-width="2" fill="none"/><path d="M662.5 654.4l-.76.67-1.32-1.5.77-.67z" fill="#5e5e5e"/><path d="M607.1 701.56l7.68-12.9 6.1 7z" stroke="#5e5e5e" stroke-width="2" fill="#5e5e5e"/><path d="M327.88 559.94l-50.2-27.9" stroke="#5e5e5e" stroke-width="2" fill="none"/><path d="M329.27 559.56l-.84 1.42-.16.3-.9-.48.98-1.75z" fill="#5e5e5e"/><path d="M264.33 524.63l14.72 2.87-4.5 8.1z" stroke="#5e5e5e" stroke-width="2" fill="#5e5e5e"/><path d="M326.1 221.73l14.22-42.68" stroke="#5e5e5e" stroke-width="2" fill="none"/><path d="M327.05 222.02l-.33 1-1.64-.6-.25-.06.32-.97z" fill="#5e5e5e"/><path d="M345.14 164.57l-.1 15-8.8-2.93z" stroke="#5e5e5e" stroke-width="2" fill="#5e5e5e"/><path d="M282.16 422l-28.35-1.88" stroke="#999" stroke-width="2" fill="none"/><path d="M283.16 421.06v2l-1.1-.07.14-2z" fill="#999"/><path d="M271.8 411.1l-17.84 9.03 16.5 11.3" stroke="#999" stroke-width="2" fill="none"/><path d="M363.16 195.92h240v60h-240z" fill="none"/><use xlink:href="#a" transform="matrix(1,0,0,1,363.1578947368421,195.91882214439886) translate(0 17.77777777777778)"/><use xlink:href="#b" transform="matrix(1,0,0,1,363.1578947368421,195.91882214439886) translate(123.27160493827162 17.77777777777778)"/><use xlink:href="#p" transform="matrix(1,0,0,1,363.1578947368421,195.91882214439886) translate(141.79012345679013 17.77777777777778)"/><use xlink:href="#d" transform="matrix(1,0,0,1,363.1578947368421,195.91882214439886) translate(0 44.44444444444444)"/><use xlink:href="#q" transform="matrix(1,0,0,1,363.1578947368421,195.91882214439886) translate(103.58024691358024 44.44444444444444)"/><path d="M362.18 201.47l-25.7-5.2" stroke="#999" stroke-width="2" fill="none"/><path d="M363.16 200.65v2.04l-1.2-.25.4-1.96z" fill="#999"/><path d="M355.5 189.74l-18.88 6.57 14.86 13.4" stroke="#999" stroke-width="2" fill="none"/><defs><path fill="#999" d="M238-179c0 84-86 86-175 82L45 0H11l48-248c82 0 179-12 179 69zm-34 1c0-53-64-42-116-43l-19 98c63 0 135 9 135-55" id="r"/><path fill="#999" d="M67-158c15-20 31-36 64-36 94 0 33 127 27 194h-32l25-140c3-38-53-32-70-12C52-117 51-51 37 0H6l51-261h31" id="s"/><path fill="#999" d="M50-231l6-30h32l-6 30H50zM6 0l37-190h31L37 0H6" id="t"/><path fill="#999" d="M6 0l50-261h32L37 0H6" id="u"/><path fill="#999" d="M30-147c31-64 166-65 159 27C183-49 158 1 86 4 9 8 1-88 30-147zM88-20c53 0 68-48 68-100 0-31-11-51-44-50-52 1-68 46-68 97 0 32 13 53 44 53" id="v"/><path fill="#999" d="M55-144c13 50 104 24 104 88C159 21 15 23 1-39l26-10c6 40 102 42 102-4-13-50-104-23-104-87 0-71 143-71 148-8l-29 4c-5-35-85-37-89 0" id="w"/><path fill="#999" d="M67-162c32-53 139-36 121 50C175-51 163 2 97 4 68 4 52-11 42-31 38 6 28 39 22 75H-9l50-265h29c-1 10 0 20-3 28zm89 36c0-26-10-43-35-43-54 0-67 50-69 103-1 29 14 45 42 46 53 0 62-58 62-106" id="x"/><path fill="#999" d="M111-194c62-3 86 47 72 106H45c-7 38 6 69 45 68 27-1 43-14 53-32l24 11C152-15 129 4 87 4 38 3 12-23 12-71c0-70 32-119 99-123zm44 81c14-66-71-72-95-28-4 8-8 17-11 28h106" id="y"/><path fill="#999" d="M66-151c12-25 30-51 66-40l-6 26C45-176 58-65 38 0H6l36-190h30" id="z"/><g id="a"><use transform="matrix(0.06172839506172839,0,0,0.06172839506172839,0,0)" xlink:href="#r"/><use transform="matrix(0.06172839506172839,0,0,0.06172839506172839,14.814814814814813,0)" xlink:href="#s"/><use transform="matrix(0.06172839506172839,0,0,0.06172839506172839,27.160493827160494,0)" xlink:href="#t"/><use transform="matrix(0.06172839506172839,0,0,0.06172839506172839,32.03703703703704,0)" xlink:href="#u"/><use transform="matrix(0.06172839506172839,0,0,0.06172839506172839,36.91358024691358,0)" xlink:href="#v"/><use transform="matrix(0.06172839506172839,0,0,0.06172839506172839,49.25925925925926,0)" xlink:href="#w"/><use transform="matrix(0.06172839506172839,0,0,0.06172839506172839,60.37037037037037,0)" xlink:href="#v"/><use transform="matrix(0.06172839506172839,0,0,0.06172839506172839,72.71604938271605,0)" xlink:href="#x"/><use transform="matrix(0.06172839506172839,0,0,0.06172839506172839,85.06172839506173,0)" xlink:href="#s"/><use transform="matrix(0.06172839506172839,0,0,0.06172839506172839,97.40740740740742,0)" xlink:href="#y"/><use transform="matrix(0.06172839506172839,0,0,0.06172839506172839,109.7530864197531,0)" xlink:href="#z"/></g><path fill="#999" d="M16-82c0-90 25-169 113-169 48 0 68 33 68 82C197-79 170 4 84 4 37 4 16-31 16-82zm30 5c0 32 11 55 40 55 69 0 76-79 80-149 2-32-10-55-39-55-69 0-81 81-81 149" id="A"/><use transform="matrix(0.06172839506172839,0,0,0.06172839506172839,0,0)" xlink:href="#A" id="b"/><path fill="#999" d="M133-28C103 26-5 8 13-77c13-62 24-115 90-117 29-1 46 15 56 35l19-102h32L160 0h-30zM45-64c-2 27 10 43 35 43 54-1 69-50 69-103 0-29-15-46-42-46-53-1-58 58-62 106" id="B"/><g id="c"><use transform="matrix(0.06172839506172839,0,0,0.06172839506172839,0,0)" xlink:href="#s"/><use transform="matrix(0.06172839506172839,0,0,0.06172839506172839,12.345679012345679,0)" xlink:href="#v"/><use transform="matrix(0.06172839506172839,0,0,0.06172839506172839,24.691358024691358,0)" xlink:href="#u"/><use transform="matrix(0.06172839506172839,0,0,0.06172839506172839,29.5679012345679,0)" xlink:href="#B"/><use transform="matrix(0.06172839506172839,0,0,0.06172839506172839,41.913580246913575,0)" xlink:href="#w"/></g><path fill="#999" d="M125-24c46 0 70-25 89-51l25 16C214-24 183 4 123 4 8 4-5-146 60-208c32-50 158-61 191-5 5 7 9 14 11 22l-32 10c-9-28-33-43-69-43-74 0-108 51-108 125 0 46 24 75 72 75" id="C"/><path fill="#999" d="M51-54c-9 22 5 41 31 30L79-1C43 14 10-4 19-52l22-115H19l5-23h22l19-43h21l-9 43h35l-4 23H73" id="D"/><path fill="#999" d="M44-68c0 29 11 47 38 47 30 0 42-19 51-41l28 9C148-21 126 4 82 4 31 4 10-29 12-85c3-77 74-140 146-93 12 8 15 23 18 40l-31 5c-1-22-13-36-36-36-52 0-65 49-65 101" id="E"/><path fill="#999" d="M127 0L80-88 50-66 37 0H6l51-261h31L57-100l99-90h39l-93 82L161 0h-34" id="F"/><g id="d"><use transform="matrix(0.06172839506172839,0,0,0.06172839506172839,0,0)" xlink:href="#C"/><use transform="matrix(0.06172839506172839,0,0,0.06172839506172839,15.987654320987653,0)" xlink:href="#s"/><use transform="matrix(0.06172839506172839,0,0,0.06172839506172839,28.333333333333332,0)" xlink:href="#v"/><use transform="matrix(0.06172839506172839,0,0,0.06172839506172839,40.67901234567901,0)" xlink:href="#x"/><use transform="matrix(0.06172839506172839,0,0,0.06172839506172839,53.02469135802469,0)" xlink:href="#w"/><use transform="matrix(0.06172839506172839,0,0,0.06172839506172839,64.1358024691358,0)" xlink:href="#D"/><use transform="matrix(0.06172839506172839,0,0,0.06172839506172839,70.30864197530863,0)" xlink:href="#t"/><use transform="matrix(0.06172839506172839,0,0,0.06172839506172839,75.18518518518518,0)" xlink:href="#E"/><use transform="matrix(0.06172839506172839,0,0,0.06172839506172839,86.29629629629629,0)" xlink:href="#F"/></g><use transform="matrix(0.06172839506172839,0,0,0.06172839506172839,0,0)" xlink:href="#A" id="e"/><path fill="#333" d="M30-248c87 1 191-15 191 75 0 78-77 80-158 76V0H30v-248zm33 125c57 0 124 11 124-50 0-59-68-47-124-48v98" id="G"/><path fill="#333" d="M101-251c68 0 85 55 85 127S166 4 100 4C33 4 14-52 14-124c0-73 17-127 87-127zm-1 229c47 0 54-49 54-102s-4-102-53-102c-51 0-55 48-55 102 0 53 5 102 54 102" id="H"/><g id="f"><use transform="matrix(0.06172839506172839,0,0,0.06172839506172839,0,0)" xlink:href="#G"/><use transform="matrix(0.043209876543209874,0,0,0.043209876543209874,14.814814814814813,3.1111111111111107)" xlink:href="#H"/></g><path fill="#333" d="M27 0v-27h64v-190l-56 39v-29l58-41h29v221h61V0H27" id="I"/><g id="g"><use transform="matrix(0.06172839506172839,0,0,0.06172839506172839,0,0)" xlink:href="#G"/><use transform="matrix(0.043209876543209874,0,0,0.043209876543209874,14.814814814814813,3.1111111111111107)" xlink:href="#I"/></g><path fill="#333" d="M101-251c82-7 93 87 43 132L82-64C71-53 59-42 53-27h129V0H18c2-99 128-94 128-182 0-28-16-43-45-43s-46 15-49 41l-32-3c6-41 34-60 81-64" id="J"/><g id="h"><use transform="matrix(0.06172839506172839,0,0,0.06172839506172839,0,0)" xlink:href="#G"/><use transform="matrix(0.043209876543209874,0,0,0.043209876543209874,14.814814814814813,3.1111111111111107)" xlink:href="#J"/></g><path fill="#333" d="M126-127c33 6 58 20 58 59 0 88-139 92-164 29-3-8-5-16-6-25l32-3c6 27 21 44 54 44 32 0 52-15 52-46 0-38-36-46-79-43v-28c39 1 72-4 72-42 0-27-17-43-46-43-28 0-47 15-49 41l-32-3c6-42 35-63 81-64 48-1 79 21 79 65 0 36-21 52-52 59" id="K"/><g id="i"><use transform="matrix(0.06172839506172839,0,0,0.06172839506172839,0,0)" xlink:href="#G"/><use transform="matrix(0.043209876543209874,0,0,0.043209876543209874,14.814814814814813,3.1111111111111107)" xlink:href="#K"/></g><path fill="#333" d="M155-56V0h-30v-56H8v-25l114-167h33v167h35v25h-35zm-30-156c-27 46-58 90-88 131h88v-131" id="L"/><g id="j"><use transform="matrix(0.06172839506172839,0,0,0.06172839506172839,0,0)" xlink:href="#G"/><use transform="matrix(0.043209876543209874,0,0,0.043209876543209874,14.814814814814813,3.1111111111111107)" xlink:href="#L"/></g><path fill="#333" d="M212-179c-10-28-35-45-73-45-59 0-87 40-87 99 0 60 29 101 89 101 43 0 62-24 78-52l27 14C228-24 195 4 139 4 59 4 22-46 18-125c-6-104 99-153 187-111 19 9 31 26 39 46" id="M"/><g id="k"><use transform="matrix(0.06172839506172839,0,0,0.06172839506172839,0,0)" xlink:href="#M"/><use transform="matrix(0.043209876543209874,0,0,0.043209876543209874,15.987654320987653,3.1111111111111107)" xlink:href="#I"/></g><g id="l"><use transform="matrix(0.06172839506172839,0,0,0.06172839506172839,0,0)" xlink:href="#M"/><use transform="matrix(0.043209876543209874,0,0,0.043209876543209874,15.987654320987653,3.1111111111111107)" xlink:href="#L"/></g><g id="m"><use transform="matrix(0.06172839506172839,0,0,0.06172839506172839,0,0)" xlink:href="#M"/><use transform="matrix(0.043209876543209874,0,0,0.043209876543209874,15.987654320987653,3.1111111111111107)" xlink:href="#H"/></g><g id="n"><use transform="matrix(0.06172839506172839,0,0,0.06172839506172839,0,0)" xlink:href="#M"/><use transform="matrix(0.043209876543209874,0,0,0.043209876543209874,15.987654320987653,3.1111111111111107)" xlink:href="#K"/></g><g id="o"><use transform="matrix(0.06172839506172839,0,0,0.06172839506172839,0,0)" xlink:href="#M"/><use transform="matrix(0.043209876543209874,0,0,0.043209876543209874,15.987654320987653,3.1111111111111107)" xlink:href="#J"/></g><path fill="#999" d="M133-28C103 26-5 8 13-77c13-62 24-115 90-117 29-1 46 15 56 35 2-12 6-24 8-34h31L144 75h-31zM45-64c-2 27 10 43 35 43 54-1 69-50 69-103 0-29-15-46-42-46-53-1-58 58-62 106" id="N"/><path fill="#999" d="M67 3c-93-2-31-127-26-193h32L48-50c-3 39 53 32 70 12 30-34 30-101 43-152h32L157 0h-30c1-10 6-24 4-33-14 20-29 37-64 36" id="O"/><g id="p"><use transform="matrix(0.06172839506172839,0,0,0.06172839506172839,0,0)" xlink:href="#z"/><use transform="matrix(0.06172839506172839,0,0,0.06172839506172839,7.345679012345679,0)" xlink:href="#y"/><use transform="matrix(0.06172839506172839,0,0,0.06172839506172839,19.691358024691358,0)" xlink:href="#N"/><use transform="matrix(0.06172839506172839,0,0,0.06172839506172839,32.03703703703704,0)" xlink:href="#O"/><use transform="matrix(0.06172839506172839,0,0,0.06172839506172839,44.382716049382715,0)" xlink:href="#y"/><use transform="matrix(0.06172839506172839,0,0,0.06172839506172839,56.72839506172839,0)" xlink:href="#w"/><use transform="matrix(0.06172839506172839,0,0,0.06172839506172839,67.8395061728395,0)" xlink:href="#D"/><use transform="matrix(0.06172839506172839,0,0,0.06172839506172839,74.01234567901234,0)" xlink:href="#w"/></g><path fill="#999" d="M9 0l6-27h63l36-188-63 39 6-31 66-41h29L110-27h60l-5 27H9" id="P"/><use transform="matrix(0.06172839506172839,0,0,0.06172839506172839,0,0)" xlink:href="#P" id="q"/></defs></g></svg>